<svg width="127" height="32" viewBox="0 0 127 32" fill="none" xmlns="http://www.w3.org/2000/svg">
    <path fill-rule="evenodd" clip-rule="evenodd"
        d="M1.44141 21.7356L2.69216 20.0668C3.94292 18.3979 6.34021 15.0602 8.84172 16.1728C11.239 17.2853 13.7405 22.8482 16.1378 24.517C18.6393 26.1858 21.0366 23.9607 23.5381 22.8482C25.9354 21.7356 28.4369 21.7356 30.8342 18.9542C33.3357 16.1728 35.733 10.61 38.2345 10.0537C40.6318 9.49741 43.1333 13.9477 45.6348 15.6165C48.0321 17.2853 50.5336 16.1728 52.9309 15.0602C55.4324 13.9477 57.8297 12.8351 60.3312 14.5039C62.7285 16.1728 65.23 20.623 67.6273 21.1793C70.1288 21.7356 72.5261 18.3979 75.0276 15.0602C77.4249 11.7225 79.9264 8.38485 82.3237 6.716C84.8252 5.04716 87.3268 5.04716 89.724 6.15972C92.2256 7.27228 94.6228 9.49741 97.1244 13.3914C99.5216 17.2853 102.023 10.9121 104.42 14.2497C106.922 17.5874 109.319 18.7 111.821 14.2497C114.218 9.7995 116.72 11.7225 119.117 6.716C121.618 1.70947 124.016 1.70947 125.266 1.70947H126.517V31.7487H125.266C124.016 31.7487 121.618 31.7487 119.117 31.7487C116.72 31.7487 114.218 31.7487 111.821 31.7487C109.319 31.7487 106.922 31.7487 104.42 31.7487C102.023 31.7487 99.5216 31.7487 97.1244 31.7487C94.6228 31.7487 92.2256 31.7487 89.724 31.7487C87.3268 31.7487 84.8252 31.7487 82.3237 31.7487C79.9264 31.7487 77.4249 31.7487 75.0276 31.7487C72.5261 31.7487 70.1288 31.7487 67.6273 31.7487C65.23 31.7487 62.7285 31.7487 60.3312 31.7487C57.8297 31.7487 55.4324 31.7487 52.9309 31.7487C50.5336 31.7487 48.0321 31.7487 45.6348 31.7487C43.1333 31.7487 40.6318 31.7487 38.2345 31.7487C35.733 31.7487 33.3357 31.7487 30.8342 31.7487C28.4369 31.7487 25.9354 31.7487 23.5381 31.7487C21.0366 31.7487 18.6393 31.7487 16.1378 31.7487C13.7405 31.7487 11.239 31.7487 8.84172 31.7487C6.34021 31.7487 3.94292 31.7487 2.69216 31.7487H1.44141V21.7356Z"
        fill="url(#paint0_linear_2001_1021)" fill-opacity="0.08" />
    <path fill-rule="evenodd" clip-rule="evenodd"
        d="M1.44141 21.7356L2.69216 20.0668C3.94292 18.3979 6.34021 15.0602 8.84172 16.1728C11.239 17.2853 13.7405 22.8482 16.1378 24.517C18.6393 26.1858 21.0366 23.9607 23.5381 22.8482C25.9354 21.7356 28.4369 21.7356 30.8342 18.9542C33.3357 16.1728 35.733 10.61 38.2345 10.0537C40.6318 9.49741 43.1333 13.9477 45.6348 15.6165C48.0321 17.2853 50.5336 16.1728 52.9309 15.0602C55.4324 13.9477 57.8297 12.8351 60.3312 14.5039C62.7285 16.1728 65.23 20.623 67.6273 21.1793C70.1288 21.7356 72.5261 18.3979 75.0276 15.0602C77.4249 11.7225 79.9264 8.38485 82.3237 6.716C84.8252 5.04716 87.3268 5.04716 89.724 6.15972C92.2256 7.27228 94.6228 9.49741 97.1244 13.3914C99.5216 17.2853 102.023 10.9121 104.42 14.2497C106.922 17.5874 109.319 18.7 111.821 14.2497C114.218 9.7995 116.72 11.7225 119.117 6.716C121.618 1.70947 124.016 1.70947 125.266 1.70947H126.517V31.7487H125.266C124.016 31.7487 121.618 31.7487 119.117 31.7487C116.72 31.7487 114.218 31.7487 111.821 31.7487C109.319 31.7487 106.922 31.7487 104.42 31.7487C102.023 31.7487 99.5216 31.7487 97.1244 31.7487C94.6228 31.7487 92.2256 31.7487 89.724 31.7487C87.3268 31.7487 84.8252 31.7487 82.3237 31.7487C79.9264 31.7487 77.4249 31.7487 75.0276 31.7487C72.5261 31.7487 70.1288 31.7487 67.6273 31.7487C65.23 31.7487 62.7285 31.7487 60.3312 31.7487C57.8297 31.7487 55.4324 31.7487 52.9309 31.7487C50.5336 31.7487 48.0321 31.7487 45.6348 31.7487C43.1333 31.7487 40.6318 31.7487 38.2345 31.7487C35.733 31.7487 33.3357 31.7487 30.8342 31.7487C28.4369 31.7487 25.9354 31.7487 23.5381 31.7487C21.0366 31.7487 18.6393 31.7487 16.1378 31.7487C13.7405 31.7487 11.239 31.7487 8.84172 31.7487C6.34021 31.7487 3.94292 31.7487 2.69216 31.7487H1.44141V21.7356Z"
        fill="url(#paint1_linear_2001_1021)" fill-opacity="0.2" />
    <path
        d="M1.44141 21.5954L2.69216 19.9218C3.94292 18.2482 6.34021 14.901 8.84172 16.0167C11.239 17.1325 13.7405 22.7111 16.1378 24.3847C18.6393 26.0583 21.0366 23.8269 23.5381 22.7111C25.9354 21.5954 28.4369 21.5954 30.8342 18.8061C33.3357 16.0167 35.733 10.4381 38.2345 9.88021C40.6318 9.32234 43.1333 13.7853 45.6348 15.4589C48.0321 17.1325 50.5336 16.0167 52.9309 14.901C55.4324 13.7853 57.8297 12.6695 60.3312 14.3431C62.7285 16.0167 65.23 20.4797 67.6273 21.0375C70.1288 21.5954 72.5261 18.2482 75.0276 14.901C77.4249 11.5538 79.9264 8.20661 82.3237 6.53301C84.8252 4.85941 87.3268 4.85941 89.724 5.97514C92.2256 7.09087 94.6228 9.32234 97.1244 13.2274C99.5216 17.1325 102.023 10.741 104.42 14.0882C106.922 17.4354 109.319 18.5512 111.821 14.0882C114.218 9.62529 116.72 11.5538 119.117 6.53301C121.618 1.51221 124.016 1.51221 125.266 1.51221H126.517"
        stroke="url(#paint2_linear_2001_1021)" stroke-opacity="0.12" />
    <defs>
        <linearGradient id="paint0_linear_2001_1021" x1="116.5" y1="13" x2="12.82" y2="52.8328"
            gradientUnits="userSpaceOnUse">
            <stop stop-color="#0CB47F" />
            <stop offset="1" stop-color="#0CB47F" stop-opacity="0" />
        </linearGradient>
        <linearGradient id="paint1_linear_2001_1021" x1="112.5" y1="17" x2="109.5" y2="32"
            gradientUnits="userSpaceOnUse">
            <stop stop-color="#0CB680" stop-opacity="0.07" />
            <stop offset="1" stop-opacity="0" />
            <stop offset="1" stop-color="#0CB680" stop-opacity="0" />
        </linearGradient>
        <linearGradient id="paint2_linear_2001_1021" x1="127" y1="1.99998" x2="0.999994" y2="43"
            gradientUnits="userSpaceOnUse">
            <stop stop-color="#0CB47F" />
            <stop offset="1" stop-color="#0CB47F" stop-opacity="0" />
        </linearGradient>
    </defs>
</svg>